<svg xmlns="http://www.w3.org/2000/svg" viewBox="0 0 71.557 71.557">
  <defs>
    <style>
      .cls-1 {
        fill: #e7e2ff;
      }

      .cls-2 {
        fill: none;
        stroke: #fff;
        stroke-width: 2px;
      }
    </style>
  </defs>
  <g id="グループ化_865" data-name="グループ化 865" transform="translate(-51 -384.243)">
    <g id="グループ化_820" data-name="グループ化 820" transform="translate(51 384.243)">
      <g id="グループ化_816" data-name="グループ化 816">
        <path id="パス_347" data-name="パス 347" class="cls-1" d="M35.778,0A35.778,35.778,0,1,0,71.557,35.778,35.777,35.777,0,0,0,35.778,0ZM9.332,35.778a26.3,26.3,0,0,1,4.493-14.732L50.5,57.723A26.429,26.429,0,0,1,9.332,35.778Zm47.88,15.457L20.321,14.344A26.42,26.42,0,0,1,57.212,51.236Z"/>
      </g>
      <g id="グループ化_819" data-name="グループ化 819" transform="translate(1.237 27.848)">
        <g id="グループ化_817" data-name="グループ化 817">
          <path id="パス_348" data-name="パス 348" class="cls-2" d="M1.5,38.055v-.965H7.345v.965H1.5ZM3.141,48.9v.643H1.9v-5.3H6.867V48.9ZM2.11,35.648V34.7H6.891v.948H2.11Zm.025,4.7v-.956H6.809v.956Zm0,2.317v-.94H6.809v.94Zm3.479,2.556H3.141v2.712H5.622V45.219Zm2.02-1.261V42.894h4.353V35.722H8.21V34.7h9.225v1.022H13.355v7.172h4.493v1.063H13.355v5.7H11.986v-5.7H7.633Zm1.83-2.267q-.68-2.869-1.162-4.229l1.2-.338q.68,2.077,1.162,4.2Zm6.15.058-1.138-.313a46.113,46.113,0,0,0,1.418-4.476l1.336.305Q16.648,39.032,15.613,41.748Z" transform="translate(-1.5 -33.942)"/>
          <path id="パス_349" data-name="パス 349" class="cls-2" d="M24.635,49.542,24.6,40.515a11.179,11.179,0,0,1-1.764,2.968l-.808-.668a22.312,22.312,0,0,0,2.4-4.625,22.741,22.741,0,0,0,1.426-4.41l1.336.214a26.711,26.711,0,0,1-1.715,4.823h.478V49.542Zm12.333-.989H29v.734H27.7V38.66h3.075V35.552H27.669V34.547H39.095v1.006H35.08V38.66h3.174v10.6H36.96v-.709ZM29,47.523h1.781V39.65H29Zm3.05-8.862h1.789V35.552H32.046Zm0,8.862h1.789V39.65H32.046Zm3.034,0h1.888V39.65H35.08Z" transform="translate(-5.105 -33.78)"/>
          <path id="パス_350" data-name="パス 350" class="cls-2" d="M49.285,34.936c-.041.9-.115,1.739-.214,2.523H52.9v1.146h-4a19.676,19.676,0,0,1-3.652,8.78l-1.006-.742a18.9,18.9,0,0,0,3.3-8.038H44.726V37.459h2.993a23.6,23.6,0,0,0,.206-2.539ZM60.3,47.187l-.692,1.1a17.81,17.81,0,0,0-3.2-2.143v.816q0,2.535-3.718,2.531a4.938,4.938,0,0,1-2.613-.651A2.026,2.026,0,0,1,49,47.03a2.275,2.275,0,0,1,1.1-2,4.736,4.736,0,0,1,2.679-.734,11.615,11.615,0,0,1,2.275.206V39.842h1.36v5.07A16.225,16.225,0,0,1,60.3,47.187Zm-5.218-1.55a9.2,9.2,0,0,0-2.308-.305,3.58,3.58,0,0,0-1.764.42A1.277,1.277,0,0,0,50.25,46.9c0,.973.866,1.459,2.605,1.459,1.484,0,2.218-.478,2.218-1.443V45.637Zm5.251-5.9-1.055.841a24.313,24.313,0,0,0-4.4-4.138l.775-.849A18.012,18.012,0,0,1,60.332,39.734Z" transform="translate(-9.006 -33.98)"/>
          <path id="パス_351" data-name="パス 351" class="cls-2" d="M81.712,42.668a10.122,10.122,0,0,1-2.869,5.062,7.225,7.225,0,0,1-4.872,1.616,8.317,8.317,0,0,1-2.069-.231,4.69,4.69,0,0,1-1.55-.692,3.462,3.462,0,0,1-1.03-1.154,4.292,4.292,0,0,1-.495-1.5,22.5,22.5,0,0,1-.107-2.679q0-3.178.379-7.8h1.41a77.331,77.331,0,0,0-.453,7.865c0,.8.016,1.467.058,2.02a3.132,3.132,0,0,0,.5,1.517,2.749,2.749,0,0,0,1.319,1.055,6.507,6.507,0,0,0,6.059-.948,9.4,9.4,0,0,0,2.514-4.584Z" transform="translate(-13.305 -34.045)"/>
        </g>
        <g id="グループ化_818" data-name="グループ化 818">
          <path id="パス_352" data-name="パス 352" d="M1.5,38.055v-.965H7.345v.965H1.5ZM3.141,48.9v.643H1.9v-5.3H6.867V48.9ZM2.11,35.648V34.7H6.891v.948H2.11Zm.025,4.7v-.956H6.809v.956Zm0,2.317v-.94H6.809v.94Zm3.479,2.556H3.141v2.712H5.622V45.219Zm2.02-1.261V42.894h4.353V35.722H8.21V34.7h9.225v1.022H13.355v7.172h4.493v1.063H13.355v5.7H11.986v-5.7H7.633Zm1.83-2.267q-.68-2.869-1.162-4.229l1.2-.338q.68,2.077,1.162,4.2Zm6.15.058-1.138-.313a46.113,46.113,0,0,0,1.418-4.476l1.336.305Q16.648,39.032,15.613,41.748Z" transform="translate(-1.5 -33.942)"/>
          <path id="パス_353" data-name="パス 353" d="M24.635,49.542,24.6,40.515a11.179,11.179,0,0,1-1.764,2.968l-.808-.668a22.312,22.312,0,0,0,2.4-4.625,22.741,22.741,0,0,0,1.426-4.41l1.336.214a26.711,26.711,0,0,1-1.715,4.823h.478V49.542Zm12.333-.989H29v.734H27.7V38.66h3.075V35.552H27.669V34.547H39.095v1.006H35.08V38.66h3.174v10.6H36.96v-.709ZM29,47.523h1.781V39.65H29Zm3.05-8.862h1.789V35.552H32.046Zm0,8.862h1.789V39.65H32.046Zm3.034,0h1.888V39.65H35.08Z" transform="translate(-5.105 -33.78)"/>
          <path id="パス_354" data-name="パス 354" d="M49.285,34.936c-.041.9-.115,1.739-.214,2.523H52.9v1.146h-4a19.676,19.676,0,0,1-3.652,8.78l-1.006-.742a18.9,18.9,0,0,0,3.3-8.038H44.726V37.459h2.993a23.6,23.6,0,0,0,.206-2.539ZM60.3,47.187l-.692,1.1a17.81,17.81,0,0,0-3.2-2.143v.816q0,2.535-3.718,2.531a4.938,4.938,0,0,1-2.613-.651A2.026,2.026,0,0,1,49,47.03a2.275,2.275,0,0,1,1.1-2,4.736,4.736,0,0,1,2.679-.734,11.615,11.615,0,0,1,2.275.206V39.842h1.36v5.07A16.225,16.225,0,0,1,60.3,47.187Zm-5.218-1.55a9.2,9.2,0,0,0-2.308-.305,3.58,3.58,0,0,0-1.764.42A1.277,1.277,0,0,0,50.25,46.9c0,.973.866,1.459,2.605,1.459,1.484,0,2.218-.478,2.218-1.443V45.637Zm5.251-5.9-1.055.841a24.313,24.313,0,0,0-4.4-4.138l.775-.849A18.012,18.012,0,0,1,60.332,39.734Z" transform="translate(-9.006 -33.98)"/>
          <path id="パス_355" data-name="パス 355" d="M81.712,42.668a10.122,10.122,0,0,1-2.869,5.062,7.225,7.225,0,0,1-4.872,1.616,8.317,8.317,0,0,1-2.069-.231,4.69,4.69,0,0,1-1.55-.692,3.462,3.462,0,0,1-1.03-1.154,4.292,4.292,0,0,1-.495-1.5,22.5,22.5,0,0,1-.107-2.679q0-3.178.379-7.8h1.41a77.331,77.331,0,0,0-.453,7.865c0,.8.016,1.467.058,2.02a3.132,3.132,0,0,0,.5,1.517,2.749,2.749,0,0,0,1.319,1.055,6.507,6.507,0,0,0,6.059-.948,9.4,9.4,0,0,0,2.514-4.584Z" transform="translate(-13.305 -34.045)"/>
        </g>
      </g>
    </g>
  </g>
</svg>
