<svg xmlns="http://www.w3.org/2000/svg" viewBox="0 0 22.734 14.788">
  <defs>
    <style>
      .cls-1 {
        fill: #ccc;
      }
    </style>
  </defs>
  <g id="グループ化_677" data-name="グループ化 677" transform="translate(-147.998 -824.212)">
    <g id="グループ化_539" data-name="グループ化 539" transform="translate(147.998 824.212)">
      <path id="パス_281" data-name="パス 281" class="cls-1" d="M553.267,330.486h.368a5.963,5.963,0,0,1,3.605-3.9,4.282,4.282,0,0,0-7.872,1.839,4.308,4.308,0,0,0-.956-.147,3.311,3.311,0,0,0,0,6.622h0A4.828,4.828,0,0,1,553.267,330.486Z" transform="translate(-545.1 -324.6)"/>
      <path id="パス_282" data-name="パス 282" class="cls-1" d="M565.883,333.35h0V333.2a5.008,5.008,0,0,0-5-5,5.083,5.083,0,0,0-5,4.488,3.049,3.049,0,0,0-1.177-.147,3.9,3.9,0,0,0,0,7.8h11.183a3.495,3.495,0,0,0,0-6.99Z" transform="translate(-546.606 -325.551)"/>
    </g>
  </g>
</svg>
