<svg xmlns="http://www.w3.org/2000/svg" viewBox="0 0 23.831 27.8">
  <defs>
    <style>
      .cls-1 {
        fill: #fffefe;
      }

      .cls-2 {
        fill: #b43331;
      }

      .cls-3 {
        fill: #040000;
        opacity: 0.08;
      }

      .cls-4 {
        fill: #bbbbba;
      }
    </style>
  </defs>
  <g id="シンボル_17_6" data-name="シンボル 17 – 6" transform="translate(-431 -1853.2)">
    <path id="パス_279" data-name="パス 279" class="cls-1" d="M34.423,6.4V27.8H11.2V0H28.021L31,2.981Z" transform="translate(420.408 1853.2)"/>
    <rect id="長方形_1795" data-name="長方形 1795" class="cls-2" width="11.136" height="4.984" transform="translate(431 1855.062)"/>
    <g id="グループ化_401" data-name="グループ化 401" transform="translate(432.797 1856.089)">
      <g id="グループ化_399" data-name="グループ化 399">
        <path id="パス_280" data-name="パス 280" class="cls-1" d="M35.3,53.9a.93.93,0,0,0-.532-.527,1.134,1.134,0,0,0-.44-.076H33.1v3.16h.619V55.266h.608a1.245,1.245,0,0,0,.44-.076.966.966,0,0,0,.326-.212.882.882,0,0,0,.206-.315,1.092,1.092,0,0,0,.071-.375A1.247,1.247,0,0,0,35.3,53.9Zm-.668.69a.48.48,0,0,1-.337.119h-.576v-.869h.576a.459.459,0,0,1,.337.125.468.468,0,0,1,0,.624Z" transform="translate(-33.1 -53.295)"/>
        <path id="パス_281" data-name="パス 281" class="cls-1" d="M88.091,54.522a2.487,2.487,0,0,0-.022-.3,1.122,1.122,0,0,0-.06-.25.8.8,0,0,0-.114-.212,1.062,1.062,0,0,0-.4-.353,1.27,1.27,0,0,0-.559-.109H85.8v3.16h1.14a1.352,1.352,0,0,0,.559-.109A1.018,1.018,0,0,0,87.9,56a.892.892,0,0,0,.114-.212,1.122,1.122,0,0,0,.06-.25c.011-.092.016-.19.022-.3s.005-.223.005-.358S88.1,54.625,88.091,54.522Zm-.619.673a1.428,1.428,0,0,1-.016.233.838.838,0,0,1-.038.157.567.567,0,0,1-.071.125.547.547,0,0,1-.462.19h-.472V53.843h.472a.551.551,0,0,1,.462.2.532.532,0,0,1,.071.119.907.907,0,0,1,.038.163,1.357,1.357,0,0,1,.016.228c.005.092.005.2.005.326S87.478,55.1,87.472,55.195Z" transform="translate(-82.939 -53.295)"/>
        <path id="パス_282" data-name="パス 282" class="cls-1" d="M140.285,53.748V53.2H138.2v3.16h.619V55.079h1.249v-.554h-1.249v-.776Z" transform="translate(-132.493 -53.2)"/>
      </g>
      <g id="グループ化_400" data-name="グループ化 400" transform="translate(0 0.005)">
        <path id="パス_283" data-name="パス 283" class="cls-1" d="M35.3,53.9a.93.93,0,0,0-.532-.527,1.134,1.134,0,0,0-.44-.076H33.1v3.16h.619V55.266h.608a1.245,1.245,0,0,0,.44-.076.966.966,0,0,0,.326-.212.882.882,0,0,0,.206-.315,1.092,1.092,0,0,0,.071-.375A1.247,1.247,0,0,0,35.3,53.9Zm-.668.69a.48.48,0,0,1-.337.119h-.576v-.869h.576a.459.459,0,0,1,.337.125.468.468,0,0,1,0,.624Z" transform="translate(-33.1 -53.3)"/>
      </g>
    </g>
    <path id="パス_284" data-name="パス 284" class="cls-3" d="M34.423,58.315v21.4H11.2V74.7L22.054,63.848,22.7,63.2l.353-.353.6-.6.7-.7L31,54.9Z" transform="translate(420.408 1801.281)"/>
    <path id="パス_285" data-name="パス 285" class="cls-4" d="M327.4,6.4H321V0Z" transform="translate(127.429 1853.2)"/>
    <g id="グループ化_402" data-name="グループ化 402" transform="translate(434.213 1861.252)">
      <path id="パス_286" data-name="パス 286" class="cls-2" d="M76.479,160.376a2.72,2.72,0,0,0-.548-.668,3.862,3.862,0,0,0-.657-.478,8.733,8.733,0,0,0-4.4-.88h-.2l-.331-.3a8.738,8.738,0,0,1-1.786-2.2,12.018,12.018,0,0,0,1.276-5.261,2.954,2.954,0,0,0-.109-.711,2.276,2.276,0,0,0-.489-.928c-.005-.005-.005-.005-.005-.011a1.882,1.882,0,0,0-1.39-.641,1.724,1.724,0,0,0-1.347.641,2.563,2.563,0,0,0-.538,1.629,14.345,14.345,0,0,0,.239,2.84c.016.071.027.141.043.206A10.617,10.617,0,0,0,67,155.874c-.385.782-.771,1.455-1.042,1.917-.206.348-.429.711-.662,1.075a16,16,0,0,0-2.72.706,7.068,7.068,0,0,0-2.5,1.455,2.931,2.931,0,0,0-.793,1.195,1.777,1.777,0,0,0,.027,1.243,1.733,1.733,0,0,0,.744.858,1.584,1.584,0,0,0,.255.125,2.2,2.2,0,0,0,.847.163,3.05,3.05,0,0,0,2-.836,21.108,21.108,0,0,0,2.965-3.632c.559-.087,1.173-.157,1.857-.233.809-.081,1.526-.13,2.177-.157.2.179.391.353.576.516a23.889,23.889,0,0,0,2.5,2.036.005.005,0,0,0,.005.005,5.593,5.593,0,0,0,.809.456,2.114,2.114,0,0,0,.912.212,1.853,1.853,0,0,0,1.07-.337,1.7,1.7,0,0,0,.641-.912A1.77,1.77,0,0,0,76.479,160.376Zm-9.051-8.2a12.551,12.551,0,0,1-.076-1.591c.005-.527.2-.885.483-.885.212,0,.44.19.543.559a1.881,1.881,0,0,1,.054.38c.005.174.005.353-.005.538a8.116,8.116,0,0,1-.271,1.667,10.9,10.9,0,0,1-.369,1.189A10.322,10.322,0,0,1,67.428,152.177ZM60.6,162.949c-.071-.174.011-.5.434-.912a7.028,7.028,0,0,1,3.089-1.488c-.271.369-.538.706-.793,1.01a11.462,11.462,0,0,1-1.108,1.178,1.8,1.8,0,0,1-.912.467.8.8,0,0,1-.157.011A.568.568,0,0,1,60.6,162.949Zm6.543-4.355.027-.043-.043.011a.211.211,0,0,1,.033-.06c.174-.293.391-.662.624-1.091l.022.043.054-.109c.174.244.358.489.559.722q.138.163.293.326l-.065.005.06.054c-.168.011-.342.027-.521.043l-.342.033C67.6,158.546,67.363,158.573,67.146,158.595Zm6.885,2.557a14.857,14.857,0,0,1-1.7-1.336,5.652,5.652,0,0,1,2.237.619,2.245,2.245,0,0,1,.527.407c.2.206.266.4.228.521a.341.341,0,0,1-.353.212.809.809,0,0,1-.32-.076,5.2,5.2,0,0,1-.592-.337C74.047,161.168,74.041,161.157,74.03,161.152Z" transform="translate(-59.179 -148.3)"/>
    </g>
  </g>
</svg>
